<?xml version="1.0" encoding="UTF-8"?><svg id="Layer_2" xmlns="http://www.w3.org/2000/svg" xmlns:xlink="http://www.w3.org/1999/xlink" viewBox="0 0 160 160"><defs><style>.cls-1{fill:#296c5a;}.cls-2{fill:#d9cdbb;filter:url(#drop-shadow-1);}</style><filter id="drop-shadow-1" filterUnits="userSpaceOnUse"><feOffset dx="2.83" dy="5.67"/><feGaussianBlur result="blur" stdDeviation="2.83"/><feFlood flood-color="#545454" flood-opacity=".71"/><feComposite in2="blur" operator="in"/><feComposite in="SourceGraphic"/></filter></defs><g id="Layer_1-2"><rect class="cls-2" x="6.5" y="3.5" width="142" height="142"/><path class="cls-1" d="M52.08,93.01c-.29,0-.55,.19-.64,.47l-5.97,18.67c-.11,.56-.45,.78-1.11,.78h-10.24c-.78,0-1-.33-.78-1L55.27,46.49c.33-1.11,.67-2.11,.78-5.68,0-.45,.22-.67,.67-.67h14.47c.56,0,.67,.11,.78,.56l24.37,71.33c.22,.56,.11,.89-.56,.89h-11.57c-.56,0-.78-.22-1-.67l-6.19-18.79c-.09-.28-.35-.46-.64-.46h-24.29Zm20.64-11.35c.45,0,.77-.43,.64-.87-2.35-7.75-7.27-22.57-9.2-30.07h-.11c-1.73,7.14-5.67,19.76-8.96,30.07-.14,.43,.19,.87,.64,.87h16.99Z"/><path class="cls-1" d="M107.12,43.04c0-4.34,3.12-7.23,7.23-7.23s6.48,2.35,7.02,5.82c.82,5.32-3.22,9.41-8.53,8.53-3.45-.57-5.72-3.28-5.72-7.12Zm.89,16.58c0-.8,.65-1.45,1.45-1.45h10.35c.56,0,.78,.11,.78,.78v52.41c0,.86-.7,1.56-1.56,1.56h-9.45c-.86,0-1.56-.7-1.56-1.56V59.63Z"/></g></svg>