<?xml version="1.0" encoding="UTF-8"?><svg id="Layer_2" xmlns="http://www.w3.org/2000/svg" xmlns:xlink="http://www.w3.org/1999/xlink" viewBox="0 0 204 204"><defs><style>.cls-1{fill:#296c5a;filter:url(#drop-shadow-1);}.cls-2{fill:#d9cdbb;}</style><filter id="drop-shadow-1" filterUnits="userSpaceOnUse"><feOffset dx="3.63" dy="7.25"/><feGaussianBlur result="blur" stdDeviation="3.63"/><feFlood flood-color="#545454" flood-opacity=".71"/><feComposite in2="blur" operator="in"/><feComposite in="SourceGraphic"/></filter></defs><g id="Layer_1-2"><g><rect class="cls-1" x="7.45" y="4.02" width="181.59" height="181.59"/><g><path class="cls-2" d="M65.74,118.48c-.37,0-.7,.24-.82,.6l-7.64,23.88c-.14,.71-.57,1-1.42,1h-13.09c-1,0-1.28-.43-1-1.28l28.04-83.68c.43-1.42,.85-2.7,1-7.26,0-.57,.28-.85,.85-.85h18.5c.71,0,.85,.14,1,.71l31.17,91.22c.28,.71,.14,1.14-.71,1.14h-14.8c-.71,0-1-.28-1.28-.85l-7.92-24.03c-.12-.35-.44-.59-.81-.59h-31.06Zm26.4-14.52c.58,0,.99-.56,.82-1.11-3-9.91-9.3-28.86-11.76-38.46h-.14c-2.21,9.13-7.25,25.27-11.46,38.45-.18,.55,.24,1.11,.82,1.11h21.72Z"/><path class="cls-2" d="M136.13,54.59c0-5.55,3.98-9.25,9.25-9.25s8.29,3.01,8.97,7.44c1.05,6.8-4.12,12.04-10.91,10.91-4.41-.73-7.31-4.19-7.31-9.11Zm1.14,21.21c0-1.02,.83-1.85,1.85-1.85h13.23c.71,0,1,.14,1,1v67.02c0,1.1-.89,2-2,2h-12.09c-1.1,0-2-.89-2-2V75.79Z"/></g></g></g></svg>