<?xml version="1.0" encoding="UTF-8"?><svg id="Layer_2" xmlns="http://www.w3.org/2000/svg" xmlns:xlink="http://www.w3.org/1999/xlink" viewBox="0 0 160 160"><defs><style>.cls-1{fill:#296c5a;}.cls-2{fill:#d9cdbb;filter:url(#drop-shadow-1);}</style><filter id="drop-shadow-1" filterUnits="userSpaceOnUse"><feOffset dx="2.83" dy="5.67"/><feGaussianBlur result="blur" stdDeviation="2.83"/><feFlood flood-color="#545454" flood-opacity=".71"/><feComposite in2="blur" operator="in"/><feComposite in="SourceGraphic"/></filter></defs><g id="Layer_1-2"><rect class="cls-2" x="6.5" y="3.5" width="142" height="142"/><g><path class="cls-1" d="M30.21,36.84c0-.58,.12-.81,.58-.81,4.42-.23,12.34-.35,20.25-.35,21.41,0,29.91,11.99,29.91,24.91,0,18.15-13.85,26.19-30.84,26.19h-6.87v24.44c0,.58-.23,.81-.93,.81h-11.41c-.47,0-.7-.23-.7-.81V36.84Zm13.03,38.29c1.86,.12,3.38,.12,6.87,.12,9.66,0,17.81-3.49,17.81-14.31,0-8.73-6.05-13.85-16.53-13.85-3.72,0-6.87,.23-8.15,.35v27.7Z"/><path class="cls-1" d="M106.84,64.3c-6.05,0-8.15,2.79-8.15,5.35s1.63,4.54,9.19,7.8c12.34,5,16.64,10.12,16.64,18.16,0,11.06-8.61,17.46-21.88,17.46-6.63,0-12.34-1.16-15.71-3.14-.46-.23-.7-.58-.7-1.16v-10.47c0-.58,.47-.81,.82-.58,4.89,3.14,10.82,4.54,15.83,4.54,6.05,0,8.84-2.33,8.84-5.59,0-2.91-1.98-5-9.31-8.15-11.75-4.66-16.18-9.78-16.18-18.04,0-8.96,7.22-16.88,20.83-16.88,6.4,0,11.29,1.05,13.85,2.33,.58,.35,.7,.81,.7,1.4v9.54c0,.7-.47,1.05-1.05,.7-3.49-1.86-8.73-3.26-13.73-3.26Z"/></g></g></svg>