<?xml version="1.0" encoding="UTF-8"?><svg id="Layer_2" xmlns="http://www.w3.org/2000/svg" xmlns:xlink="http://www.w3.org/1999/xlink" viewBox="0 0 204 203"><defs><style>.cls-1{fill:#296c5a;filter:url(#drop-shadow-1);}.cls-2{fill:#d9cdbb;}</style><filter id="drop-shadow-1" filterUnits="userSpaceOnUse"><feOffset dx="3.61" dy="7.21"/><feGaussianBlur result="blur" stdDeviation="3.61"/><feFlood flood-color="#545454" flood-opacity=".71"/><feComposite in2="blur" operator="in"/><feComposite in="SourceGraphic"/></filter></defs><g id="Layer_1-2"><g><rect class="cls-1" x="7.63" y="3.89" width="180.7" height="180.7"/><g><path class="cls-2" d="M37.8,46.31c0-.74,.15-1.04,.74-1.04,5.63-.3,15.7-.44,25.77-.44,27.25,0,38.06,15.25,38.06,31.69,0,23.1-17.62,33.32-39.25,33.32h-8.74v31.1c0,.74-.3,1.04-1.18,1.04h-14.51c-.59,0-.89-.3-.89-1.04V46.31Zm16.59,48.73c2.37,.15,4.29,.15,8.74,.15,12.29,0,22.66-4.44,22.66-18.22,0-11.11-7.7-17.62-21.03-17.62-4.74,0-8.74,.3-10.37,.44v35.25Z"/><path class="cls-2" d="M135.31,81.27c-7.7,0-10.37,3.55-10.37,6.81s2.07,5.78,11.7,9.92c15.7,6.37,21.18,12.88,21.18,23.1,0,14.07-10.96,22.22-27.84,22.22-8.44,0-15.7-1.48-19.99-4-.59-.3-.89-.74-.89-1.48v-13.33c0-.74,.59-1.04,1.04-.74,6.22,4,13.77,5.78,20.14,5.78,7.7,0,11.26-2.96,11.26-7.11,0-3.7-2.52-6.37-11.85-10.37-14.96-5.92-20.59-12.44-20.59-22.95,0-11.4,9.18-21.47,26.51-21.47,8.15,0,14.37,1.33,17.62,2.96,.74,.44,.89,1.04,.89,1.78v12.14c0,.89-.59,1.33-1.33,.89-4.44-2.37-11.11-4.15-17.48-4.15Z"/></g></g></g></svg>