<?xml version="1.0" encoding="UTF-8"?><svg id="Layer_2" xmlns="http://www.w3.org/2000/svg" xmlns:xlink="http://www.w3.org/1999/xlink" viewBox="0 0 935 785.5"><defs><style>.cls-1{fill:url(#linear-gradient-2);}.cls-2{fill:#604e3e;}.cls-3{fill:url(#linear-gradient-14);}.cls-4{fill:url(#linear-gradient-6);}.cls-5{stroke:#604e3e;stroke-width:18px;}.cls-5,.cls-6{fill:none;stroke-miterlimit:10;}.cls-7{fill:url(#linear-gradient-11);}.cls-6{stroke:#e5ddd1;stroke-width:21px;}.cls-8{fill:url(#linear-gradient-4);filter:url(#drop-shadow-1);}.cls-9{fill:url(#linear-gradient-5);}.cls-10{fill:url(#linear-gradient-7);}.cls-11{fill:url(#linear-gradient-9);}.cls-12{fill:#a08d78;}.cls-13{fill:url(#linear-gradient-3);}.cls-14{fill:url(#linear-gradient);}.cls-15{fill:#d9cdbb;}.cls-16{fill:url(#linear-gradient-8);}.cls-17{fill:url(#linear-gradient-10);filter:url(#drop-shadow-2);}.cls-18{fill:url(#linear-gradient-12);}.cls-19{fill:url(#linear-gradient-13);}</style><linearGradient id="linear-gradient" x1="467.75" y1="785.5" x2="467.75" y2="475" gradientUnits="userSpaceOnUse"><stop offset="0" stop-color="#96836c"/><stop offset="1" stop-color="#d9cdbb"/></linearGradient><linearGradient id="linear-gradient-2" x1="467" y1="407.45" x2="467" y2="24" gradientUnits="userSpaceOnUse"><stop offset="0" stop-color="#665444"/><stop offset="1" stop-color="#b7a291"/></linearGradient><linearGradient id="linear-gradient-3" x1="200.5" y1="568" x2="200.5" y2="489.5" gradientUnits="userSpaceOnUse"><stop offset="0" stop-color="#dadada"/><stop offset=".34" stop-color="#d6d6d6"/><stop offset=".63" stop-color="#ccc"/><stop offset=".89" stop-color="#bbb"/><stop offset="1" stop-color="#b2b2b2"/></linearGradient><linearGradient id="linear-gradient-4" x1="201" y1="577.5" x2="201" y2="506.5" gradientUnits="userSpaceOnUse"><stop offset="0" stop-color="#dadada"/><stop offset=".24" stop-color="#d6d6d6"/><stop offset=".43" stop-color="#ccc"/><stop offset=".61" stop-color="#bbb"/><stop offset=".79" stop-color="#a2a2a2"/><stop offset=".95" stop-color="#838383"/><stop offset="1" stop-color="#797979"/></linearGradient><filter id="drop-shadow-1" filterUnits="userSpaceOnUse"><feOffset dx="2.83" dy="5.67"/><feGaussianBlur result="blur" stdDeviation="2.83"/><feFlood flood-color="#545454" flood-opacity=".71"/><feComposite in2="blur" operator="in"/><feComposite in="SourceGraphic"/></filter><linearGradient id="linear-gradient-5" x1="177.5" y1="501" x2="177.5" y2="496" xlink:href="#linear-gradient-4"/><linearGradient id="linear-gradient-6" x1="223.5" y1="501" x2="223.5" y2="496" xlink:href="#linear-gradient-4"/><linearGradient id="linear-gradient-7" x1="177.5" y1="529" x2="177.5" y2="524" xlink:href="#linear-gradient-4"/><linearGradient id="linear-gradient-8" x1="223.5" y1="529" x2="223.5" y2="524" xlink:href="#linear-gradient-4"/><linearGradient id="linear-gradient-9" x1="739.83" y1="568.18" x2="739.83" y2="489.68" xlink:href="#linear-gradient-3"/><linearGradient id="linear-gradient-10" x1="740.33" y1="577.68" x2="740.33" y2="506.68" xlink:href="#linear-gradient-4"/><filter id="drop-shadow-2" filterUnits="userSpaceOnUse"><feOffset dx="2.83" dy="5.67"/><feGaussianBlur result="blur-2" stdDeviation="2.83"/><feFlood flood-color="#545454" flood-opacity=".71"/><feComposite in2="blur-2" operator="in"/><feComposite in="SourceGraphic"/></filter><linearGradient id="linear-gradient-11" x1="716.83" y1="501.18" x2="716.83" y2="496.18" xlink:href="#linear-gradient-4"/><linearGradient id="linear-gradient-12" x1="762.83" y1="501.18" x2="762.83" y2="496.18" xlink:href="#linear-gradient-4"/><linearGradient id="linear-gradient-13" x1="716.83" y1="529.18" x2="716.83" y2="524.18" xlink:href="#linear-gradient-4"/><linearGradient id="linear-gradient-14" x1="762.83" y1="529.18" x2="762.83" y2="524.18" xlink:href="#linear-gradient-4"/></defs><g id="Layer_1-2"><path class="cls-14" d="M5.3,475H930.2c2.65,0,4.8,2.15,4.8,4.8v264.55c0,22.71-18.44,41.15-41.15,41.15H33.17c-18.03,0-32.67-14.64-32.67-32.67V479.8c0-2.65,2.15-4.8,4.8-4.8Z"/><rect class="cls-15" x="16" width="902" height="427" rx="32.77" ry="32.77"/><rect class="cls-1" x="38" y="24" width="858" height="383.45" rx="30.29" ry="30.29"/><path class="cls-13" d="M233.5,502.03v19.94c0,6.23-4.55,11.4-10.5,12.37v21.13c0,6.92-5.61,12.53-12.53,12.53h-19.94c-6.92,0-12.53-5.61-12.53-12.53v-21.13c-5.95-.97-10.5-6.14-10.5-12.37v-19.94c0-6.92,5.61-12.53,12.53-12.53h40.94c6.92,0,12.53,5.61,12.53,12.53Z"/><rect class="cls-8" x="192.5" y="506.5" width="17" height="71"/><circle class="cls-9" cx="177.5" cy="498.5" r="2.5"/><circle class="cls-4" cx="223.5" cy="498.5" r="2.5"/><circle class="cls-10" cx="177.5" cy="526.5" r="2.5"/><circle class="cls-16" cx="223.5" cy="526.5" r="2.5"/><g><path class="cls-11" d="M772.83,502.21v19.94c0,6.23-4.55,11.4-10.5,12.37v21.13c0,6.92-5.61,12.53-12.53,12.53h-19.94c-6.92,0-12.53-5.61-12.53-12.53v-21.13c-5.95-.97-10.5-6.14-10.5-12.37v-19.94c0-6.92,5.61-12.53,12.53-12.53h40.94c6.92,0,12.53,5.61,12.53,12.53Z"/><rect class="cls-17" x="731.83" y="506.68" width="17" height="71"/><circle class="cls-7" cx="716.83" cy="498.68" r="2.5"/><circle class="cls-18" cx="762.83" cy="498.68" r="2.5"/><circle class="cls-19" cx="716.83" cy="526.68" r="2.5"/><circle class="cls-3" cx="762.83" cy="526.68" r="2.5"/></g><path class="cls-5" d="M63.22,399.07c-11.44-4.07-19.64-14.99-19.64-27.83V60.17c0-16.31,13.22-29.53,29.53-29.53H858.97c2.3,.03,5.35,.31,8.78,1.33,4.95,1.46,8.55,3.83,10.75,5.54"/><path class="cls-6" d="M878.5,37.5c2.39,2.26,6.54,6.85,8.67,13.89,1.02,3.37,1.31,6.41,1.33,8.77V371.24c-.04,2.83-.53,13.76-9,22.26-3.92,3.93-8.15,5.95-11,7"/><path class="cls-12" d="M0,477c5.67-16.67,11.33-33.33,17-50H916c6.33,17.33,12.67,34.67,19,52-311.67-.67-623.33-1.33-935-2Z"/><path class="cls-2" d="M20.58,462.59c3.02-7.22,6.04-14.45,9.07-21.67,1.48-3.54,5.57-5.92,10.16-5.92H889.46c4.51,0,8.54,2.29,10.08,5.73,3.47,7.73,6.95,15.45,10.42,23.18,2.56,5.7-2.64,11.73-10.11,11.72-289.71-.5-579.43-1.01-869.14-1.51-7.34-.01-12.5-5.88-10.14-11.53Z"/></g></svg>