<?xml version="1.0" encoding="UTF-8"?><svg id="Layer_2" xmlns="http://www.w3.org/2000/svg" xmlns:xlink="http://www.w3.org/1999/xlink" viewBox="0 0 935 422.5"><defs><style>.cls-1{fill:url(#linear-gradient-2);}.cls-2{fill:url(#linear-gradient-9);filter:url(#drop-shadow-1);}.cls-3{fill:#604e3e;}.cls-4{fill:url(#linear-gradient-6);}.cls-5{fill:url(#linear-gradient-11);}.cls-6{fill:url(#linear-gradient-10);}.cls-7{fill:url(#linear-gradient-5);}.cls-8{fill:url(#linear-gradient-7);}.cls-9{fill:#a08d78;}.cls-10{fill:url(#linear-gradient-3);}.cls-11{fill:url(#linear-gradient-14);filter:url(#drop-shadow-2);}.cls-12{fill:url(#linear-gradient);}.cls-13{fill:url(#linear-gradient-4);}.cls-14{fill:url(#linear-gradient-8);}.cls-15{fill:url(#linear-gradient-12);}.cls-16{fill:url(#linear-gradient-13);}</style><linearGradient id="linear-gradient" x1="467.75" y1="422.5" x2="467.75" y2="112" gradientUnits="userSpaceOnUse"><stop offset="0" stop-color="#96836c"/><stop offset="1" stop-color="#d9cdbb"/></linearGradient><linearGradient id="linear-gradient-2" x1="468" y1="116" x2="468" y2="0" gradientUnits="userSpaceOnUse"><stop offset="0" stop-color="#c1b29e"/><stop offset="0" stop-color="#c1b29e"/><stop offset=".28" stop-color="#cec1ae"/><stop offset=".59" stop-color="#d6cab7"/><stop offset="1" stop-color="#d9cdbb"/></linearGradient><linearGradient id="linear-gradient-3" x1="200.5" y1="205" x2="200.5" y2="126.5" gradientUnits="userSpaceOnUse"><stop offset="0" stop-color="#dadada"/><stop offset=".34" stop-color="#d6d6d6"/><stop offset=".63" stop-color="#ccc"/><stop offset=".89" stop-color="#bbb"/><stop offset="1" stop-color="#b2b2b2"/></linearGradient><linearGradient id="linear-gradient-4" x1="177.5" y1="138" x2="177.5" y2="133" gradientUnits="userSpaceOnUse"><stop offset="0" stop-color="#dadada"/><stop offset=".24" stop-color="#d6d6d6"/><stop offset=".43" stop-color="#ccc"/><stop offset=".61" stop-color="#bbb"/><stop offset=".79" stop-color="#a2a2a2"/><stop offset=".95" stop-color="#838383"/><stop offset="1" stop-color="#797979"/></linearGradient><linearGradient id="linear-gradient-5" x1="223.5" x2="223.5" xlink:href="#linear-gradient-4"/><linearGradient id="linear-gradient-6" y1="166" y2="161" xlink:href="#linear-gradient-4"/><linearGradient id="linear-gradient-7" x1="223.5" y1="166" x2="223.5" y2="161" xlink:href="#linear-gradient-4"/><linearGradient id="linear-gradient-8" x1="739.83" y1="205.18" x2="739.83" y2="126.68" xlink:href="#linear-gradient-3"/><linearGradient id="linear-gradient-9" x1="740.33" y1="193.68" x2="740.33" y2="122.68" gradientTransform="translate(0 270.37) scale(1 -1)" xlink:href="#linear-gradient-4"/><filter id="drop-shadow-1" filterUnits="userSpaceOnUse"><feOffset dx="2.83" dy="5.67"/><feGaussianBlur result="blur" stdDeviation="2.83"/><feFlood flood-color="#545454" flood-opacity=".71"/><feComposite in2="blur" operator="in"/><feComposite in="SourceGraphic"/></filter><linearGradient id="linear-gradient-10" x1="716.83" y1="138.18" x2="716.83" y2="133.18" xlink:href="#linear-gradient-4"/><linearGradient id="linear-gradient-11" x1="762.83" y1="138.18" x2="762.83" y2="133.18" xlink:href="#linear-gradient-4"/><linearGradient id="linear-gradient-12" x1="716.83" y1="166.18" x2="716.83" y2="161.18" xlink:href="#linear-gradient-4"/><linearGradient id="linear-gradient-13" x1="762.83" y1="166.18" x2="762.83" y2="161.18" xlink:href="#linear-gradient-4"/><linearGradient id="linear-gradient-14" x1="200.5" y1="194.37" x2="200.5" y2="123.37" gradientTransform="translate(0 270.37) scale(1 -1)" xlink:href="#linear-gradient-4"/><filter id="drop-shadow-2" filterUnits="userSpaceOnUse"><feOffset dx="2.83" dy="5.67"/><feGaussianBlur result="blur-2" stdDeviation="2.83"/><feFlood flood-color="#545454" flood-opacity=".71"/><feComposite in2="blur-2" operator="in"/><feComposite in="SourceGraphic"/></filter></defs><g id="Layer_1-2"><path class="cls-12" d="M5.3,112H930.2c2.65,0,4.8,2.15,4.8,4.8V381.35c0,22.71-18.44,41.15-41.15,41.15H33.17c-18.03,0-32.67-14.64-32.67-32.67V116.8c0-2.65,2.15-4.8,4.8-4.8Z"/><path class="cls-9" d="M0,114c5.67-16.67,11.33-33.33,17-50H916c6.33,17.33,12.67,34.67,19,52-311.67-.67-623.33-1.33-935-2Z"/><path class="cls-3" d="M20.58,99.59c3.02-7.22,6.04-14.45,9.07-21.67,1.48-3.54,5.57-5.92,10.16-5.92H889.46c4.51,0,8.54,2.29,10.08,5.73,3.47,7.73,6.95,15.45,10.42,23.18,2.56,5.7-2.64,11.73-10.11,11.72-289.71-.5-579.43-1.01-869.14-1.51-7.34-.01-12.5-5.88-10.14-11.53Z"/><path class="cls-1" d="M47.54,0H888.46c25.69,0,46.54,20.85,46.54,46.54V116H1V46.54C1,20.85,21.85,0,47.54,0Z"/><path class="cls-10" d="M233.5,139.03v19.94c0,6.23-4.55,11.4-10.5,12.37v21.13c0,6.92-5.61,12.53-12.53,12.53h-19.94c-6.92,0-12.53-5.61-12.53-12.53v-21.13c-5.95-.97-10.5-6.14-10.5-12.37v-19.94c0-6.92,5.61-12.53,12.53-12.53h40.94c6.92,0,12.53,5.61,12.53,12.53Z"/><circle class="cls-13" cx="177.5" cy="135.5" r="2.5"/><circle class="cls-7" cx="223.5" cy="135.5" r="2.5"/><circle class="cls-4" cx="177.5" cy="163.5" r="2.5"/><circle class="cls-8" cx="223.5" cy="163.5" r="2.5"/><path class="cls-14" d="M772.83,139.21v19.94c0,6.23-4.55,11.4-10.5,12.37v21.13c0,6.92-5.61,12.53-12.53,12.53h-19.94c-6.92,0-12.53-5.61-12.53-12.53v-21.13c-5.95-.97-10.5-6.14-10.5-12.37v-19.94c0-6.92,5.61-12.53,12.53-12.53h40.94c6.92,0,12.53,5.61,12.53,12.53Z"/><rect class="cls-2" x="731.83" y="76.68" width="17" height="71"/><circle class="cls-6" cx="716.83" cy="135.68" r="2.5"/><circle class="cls-5" cx="762.83" cy="135.68" r="2.5"/><circle class="cls-15" cx="716.83" cy="163.68" r="2.5"/><circle class="cls-16" cx="762.83" cy="163.68" r="2.5"/><rect class="cls-11" x="192" y="76" width="17" height="71"/></g></svg>