<?xml version="1.0" encoding="UTF-8"?><svg id="Layer_2" xmlns="http://www.w3.org/2000/svg" xmlns:xlink="http://www.w3.org/1999/xlink" viewBox="0 0 934.5 310.5"><defs><style>.cls-1{fill:url(#linear-gradient-2);}.cls-2{fill:url(#linear-gradient-5);filter:url(#drop-shadow-1);}.cls-3{fill:url(#linear-gradient-15);}.cls-4{fill:url(#linear-gradient-14);}.cls-5{fill:url(#linear-gradient-6);}.cls-6{fill:url(#linear-gradient-10);}.cls-7{fill:url(#linear-gradient-7);}.cls-8{fill:url(#linear-gradient-9);}.cls-9{fill:url(#linear-gradient-3);}.cls-10{fill:url(#linear-gradient);}.cls-11{fill:url(#linear-gradient-11);filter:url(#drop-shadow-2);}.cls-12{fill:url(#linear-gradient-4);}.cls-13{fill:url(#linear-gradient-8);}.cls-14{fill:url(#linear-gradient-12);}.cls-15{fill:url(#linear-gradient-13);}</style><linearGradient id="linear-gradient" x1="177" y1="26" x2="177" y2="21" gradientUnits="userSpaceOnUse"><stop offset="0" stop-color="#dadada"/><stop offset=".24" stop-color="#d6d6d6"/><stop offset=".43" stop-color="#ccc"/><stop offset=".61" stop-color="#bbb"/><stop offset=".79" stop-color="#a2a2a2"/><stop offset=".95" stop-color="#838383"/><stop offset="1" stop-color="#797979"/></linearGradient><linearGradient id="linear-gradient-2" x1="223" x2="223" xlink:href="#linear-gradient"/><linearGradient id="linear-gradient-3" x1="467.25" y1="310.5" x2="467.25" y2="0" gradientUnits="userSpaceOnUse"><stop offset="0" stop-color="#96836c"/><stop offset="1" stop-color="#d9cdbb"/></linearGradient><linearGradient id="linear-gradient-4" x1="200" y1="93" x2="200" y2="14.5" gradientUnits="userSpaceOnUse"><stop offset="0" stop-color="#dadada"/><stop offset=".34" stop-color="#d6d6d6"/><stop offset=".63" stop-color="#ccc"/><stop offset=".89" stop-color="#bbb"/><stop offset="1" stop-color="#b2b2b2"/></linearGradient><linearGradient id="linear-gradient-5" x1="200.5" y1="102.5" x2="200.5" y2="31.5" xlink:href="#linear-gradient"/><filter id="drop-shadow-1" filterUnits="userSpaceOnUse"><feOffset dx="2.83" dy="5.67"/><feGaussianBlur result="blur" stdDeviation="2.83"/><feFlood flood-color="#545454" flood-opacity=".71"/><feComposite in2="blur" operator="in"/><feComposite in="SourceGraphic"/></filter><linearGradient id="linear-gradient-6" y1="54" y2="49" xlink:href="#linear-gradient"/><linearGradient id="linear-gradient-7" x1="223" y1="54" x2="223" y2="49" xlink:href="#linear-gradient"/><linearGradient id="linear-gradient-8" y1="25" y2="20" xlink:href="#linear-gradient"/><linearGradient id="linear-gradient-9" x1="223" y1="25" x2="223" y2="20" xlink:href="#linear-gradient"/><linearGradient id="linear-gradient-10" x1="739.33" y1="93.18" x2="739.33" y2="14.68" xlink:href="#linear-gradient-4"/><linearGradient id="linear-gradient-11" x1="739.83" y1="102.68" x2="739.83" y2="31.68" xlink:href="#linear-gradient"/><filter id="drop-shadow-2" filterUnits="userSpaceOnUse"><feOffset dx="2.83" dy="5.67"/><feGaussianBlur result="blur-2" stdDeviation="2.83"/><feFlood flood-color="#545454" flood-opacity=".71"/><feComposite in2="blur-2" operator="in"/><feComposite in="SourceGraphic"/></filter><linearGradient id="linear-gradient-12" x1="716.33" y1="26.18" x2="716.33" y2="21.18" xlink:href="#linear-gradient"/><linearGradient id="linear-gradient-13" x1="762.33" y1="26.18" x2="762.33" y2="21.18" xlink:href="#linear-gradient"/><linearGradient id="linear-gradient-14" x1="716.33" y1="54.18" x2="716.33" y2="49.18" xlink:href="#linear-gradient"/><linearGradient id="linear-gradient-15" x1="762.33" y1="54.18" x2="762.33" y2="49.18" xlink:href="#linear-gradient"/></defs><g id="Layer_1-2"><circle class="cls-10" cx="177" cy="23.5" r="2.5"/><circle class="cls-1" cx="223" cy="23.5" r="2.5"/><path class="cls-9" d="M4.8,0H929.7c2.65,0,4.8,2.15,4.8,4.8V269.35c0,22.71-18.44,41.15-41.15,41.15H32.67c-18.03,0-32.67-14.64-32.67-32.67V4.8C0,2.15,2.15,0,4.8,0Z"/><path class="cls-12" d="M233,27.03v19.94c0,6.23-4.55,11.4-10.5,12.37v21.13c0,6.92-5.61,12.53-12.53,12.53h-19.94c-6.92,0-12.53-5.61-12.53-12.53v-21.13c-5.95-.97-10.5-6.14-10.5-12.37V27.03c0-6.92,5.61-12.53,12.53-12.53h40.94c6.92,0,12.53,5.61,12.53,12.53Z"/><rect class="cls-2" x="192" y="31.5" width="17" height="71"/><circle class="cls-5" cx="177" cy="51.5" r="2.5"/><circle class="cls-7" cx="223" cy="51.5" r="2.5"/><circle class="cls-13" cx="177" cy="22.5" r="2.5"/><circle class="cls-8" cx="223" cy="22.5" r="2.5"/><g><path class="cls-6" d="M772.33,27.21v19.94c0,6.23-4.55,11.4-10.5,12.37v21.13c0,6.92-5.61,12.53-12.53,12.53h-19.94c-6.92,0-12.53-5.61-12.53-12.53v-21.13c-5.95-.97-10.5-6.14-10.5-12.37V27.21c0-6.92,5.61-12.53,12.53-12.53h40.94c6.92,0,12.53,5.61,12.53,12.53Z"/><rect class="cls-11" x="731.33" y="31.68" width="17" height="71"/><circle class="cls-14" cx="716.33" cy="23.68" r="2.5"/><circle class="cls-15" cx="762.33" cy="23.68" r="2.5"/><circle class="cls-4" cx="716.33" cy="51.68" r="2.5"/><circle class="cls-3" cx="762.33" cy="51.68" r="2.5"/></g></g></svg>