<?xml version="1.0" encoding="UTF-8"?><svg id="Layer_2" xmlns="http://www.w3.org/2000/svg" xmlns:xlink="http://www.w3.org/1999/xlink" viewBox="0 0 160 160"><defs><style>.cls-1{fill:#296c5a;}.cls-2{fill:#d9cdbb;filter:url(#drop-shadow-1);}</style><filter id="drop-shadow-1" filterUnits="userSpaceOnUse"><feOffset dx="2.83" dy="5.67"/><feGaussianBlur result="blur" stdDeviation="2.83"/><feFlood flood-color="#545454" flood-opacity=".71"/><feComposite in2="blur" operator="in"/><feComposite in="SourceGraphic"/></filter></defs><g id="Layer_1-2"><rect class="cls-2" x="6.5" y="3.5" width="142" height="142"/><g><path class="cls-1" d="M61.27,75.73l21.24,35.62c.33,.54,.11,.98-.54,1.09h-12.31c-.87,0-1.2-.22-1.52-.87-5.12-8.93-10.24-17.97-15.47-27.45h-.11c-4.79,9.15-9.8,18.52-14.7,27.56-.33,.54-.65,.76-1.31,.76h-11.76c-.65,0-.76-.54-.44-.98l20.59-34.74L24.89,42.08c-.33-.44,0-.87,.44-.87h12.31c.65,0,.98,.11,1.2,.65,4.79,9.04,10.02,17.97,14.7,27.01h.11c4.57-9.04,9.69-17.97,14.49-26.9,.22-.54,.44-.76,1.2-.76h11.33c.65,0,.76,.33,.44,.98l-19.82,33.55Z"/><path class="cls-1" d="M83.84,86.08c0-15.79,11.33-28.32,29.52-28.32,1.74,0,2.83,.11,4.57,.33v-22.11c0-.44,.22-.65,.65-.65h11c.54,0,.65,.22,.65,.54V101.76c0,2.07,0,4.57,.33,6.75,0,.44-.11,.65-.65,.87-6.54,2.94-13.07,4.03-19.17,4.03-15.36,0-26.9-9.04-26.9-27.34Zm34.09-17.21c-1.31-.44-3.05-.65-5.01-.65-9.58,0-16.56,6.53-16.56,17.32,0,12.31,6.97,17.21,15.47,17.21,2.07,0,4.25-.11,6.1-.87v-33Z"/></g></g></svg>