<?xml version="1.0" encoding="UTF-8"?><svg id="Layer_2" xmlns="http://www.w3.org/2000/svg" xmlns:xlink="http://www.w3.org/1999/xlink" viewBox="0 0 206 206"><defs><style>.cls-1{fill:#296c5a;filter:url(#drop-shadow-1);}.cls-2{fill:#d9cdbb;}</style><filter id="drop-shadow-1" filterUnits="userSpaceOnUse"><feOffset dx="3.65" dy="7.29"/><feGaussianBlur result="blur" stdDeviation="3.65"/><feFlood flood-color="#545454" flood-opacity=".71"/><feComposite in2="blur" operator="in"/><feComposite in="SourceGraphic"/></filter></defs><g id="Layer_1-2"><g><rect class="cls-1" x="8.08" y="4.62" width="182.61" height="182.61"/><g><path class="cls-2" d="M78.51,97.5l27.31,45.8c.42,.7,.14,1.26-.7,1.4h-15.83c-1.12,0-1.54-.28-1.96-1.12-6.58-11.49-13.17-23.11-19.89-35.3h-.14c-6.16,11.77-12.61,23.81-18.91,35.44-.42,.7-.84,.98-1.68,.98h-15.13c-.84,0-.98-.7-.56-1.26l26.47-44.68L31.73,54.22c-.42-.56,0-1.12,.56-1.12h15.83c.84,0,1.26,.14,1.54,.84,6.16,11.63,12.89,23.11,18.91,34.74h.14c5.88-11.63,12.47-23.11,18.63-34.6,.28-.7,.56-.98,1.54-.98h14.57c.84,0,.98,.42,.56,1.26l-25.49,43.14Z"/><path class="cls-2" d="M107.53,110.8c0-20.31,14.57-36.42,37.96-36.42,2.24,0,3.64,.14,5.88,.42v-28.43c0-.56,.28-.84,.84-.84h14.15c.7,0,.84,.28,.84,.7v84.74c0,2.66,0,5.88,.42,8.68,0,.56-.14,.84-.84,1.12-8.4,3.78-16.81,5.18-24.65,5.18-19.75,0-34.6-11.63-34.6-35.16Zm43.84-22.13c-1.68-.56-3.92-.84-6.44-.84-12.33,0-21.29,8.4-21.29,22.27,0,15.83,8.96,22.13,19.89,22.13,2.66,0,5.46-.14,7.84-1.12v-42.44Z"/></g></g></g></svg>